<svg xmlns="http://www.w3.org/2000/svg" width="24" height="24">
  <path d="M6.62 13.08a.9.9 0 0 0-.54.54 1 1 0 0 0 1.63 1.09c.09-.1.16-.2.21-.33A.84.84 0 0 0 8 14c0-.26-.1-.52-.29-.71a1 1 0 0 0-1.09-.21Zm13.14-4L18.4 5.05a3 3 0 0 0-2.84-2H8.44a3 3 0 0 0-2.84 2L4.24 9.11A3 3 0 0 0 2 12v4a3 3 0 0 0 2 2.82V20a1 1 0 1 0 2 0v-1h12v1a1 1 0 0 0 2 0v-1.18A3 3 0 0 0 22 16v-4a3 3 0 0 0-2.24-2.89v-.03ZM7.49 5.68A1 1 0 0 1 8.44 5h7.12a1 1 0 0 1 1 .68L17.61 9H6.39l1.1-3.32ZM20 16a1 1 0 0 1-1 1H5a1 1 0 0 1-1-1v-4a1 1 0 0 1 1-1h14a1 1 0 0 1 1 1v4Zm-3.38-2.92a.9.9 0 0 0-.54.54 1 1 0 0 0 1.63 1.09c.1-.1.17-.2.21-.33A.84.84 0 0 0 18 14c0-.26-.1-.52-.29-.71a1 1 0 0 0-1.09-.21ZM13 13h-2a1 1 0 0 0 0 2h2a1 1 0 1 0 0-2Z"/>
</svg>
