<svg xmlns="http://www.w3.org/2000/svg" width="40" height="40">
  <path d="M16.68 13.63a2.9 2.9 0 0 1 2.88-2.94c1.71 0 2.9 1.34 2.9 2.94 0 1.6-1.19 2.8-2.9 2.8a2.8 2.8 0 0 1-2.88-2.8Z"/>
  <path fill-rule="evenodd" d="M20 40a20 20 0 1 0 0-40 20 20 0 0 0 0 40Zm-7.53-26.37c0 3.7 3.22 6.82 7.1 6.82h.02c1.87.01 3.66-.7 4.99-1.99a6.76 6.76 0 0 0 2.08-4.83 6.98 6.98 0 0 0-7.1-6.96 7.06 7.06 0 0 0-7.09 6.96ZM26.4 29.9l-4.01-3.76a17.46 17.46 0 0 0 4.2-1.79c.92-.51 1.19-1.79.6-2.74-.6-.96-1.84-1.22-2.9-.58a9.27 9.27 0 0 1-9.45 0c-1.05-.64-2.23-.38-2.89.58-.52.95-.33 2.23.66 2.74 1.32.76 2.73 1.36 4.2 1.79l-4.08 3.76a1.96 1.96 0 0 0 0 2.81c.46.38.99.58 1.45.58.6 0 1.12-.2 1.51-.58l3.88-3.83 4 3.83c.66.83 1.97.83 2.83 0 .78-.76.78-1.98 0-2.8Z" clip-rule="evenodd"/>
</svg>
