<svg xmlns="http://www.w3.org/2000/svg" width="24" height="24">
  <path d="M6.16 13.67a.83.83 0 0 0-.83.84v3.33a.83.83 0 1 0 1.67 0v-.28h.55a1.95 1.95 0 0 0 0-3.89H6.16Zm1.4 2.23H7v-.56h.55a.28.28 0 1 1 0 .56Zm7.78-1.4a.83.83 0 0 1 .83-.83h1.66a.83.83 0 1 1 0 1.67H17v.56h.83a.83.83 0 1 1 0 1.66H17v.28a.83.83 0 0 1-1.67 0V14.5Zm-4.18-.83a.83.83 0 0 0-.83.84v3.33a.83.83 0 0 0 .83.83H12a2.5 2.5 0 0 0 0-5h-.84Zm.84 3.34v-1.67A.83.83 0 1 1 12 17ZM3.66 4.5v5.96A2.5 2.5 0 0 0 2 12.83v6.68A2.5 2.5 0 0 0 4.5 22h15a2.5 2.5 0 0 0 2.5-2.5v-6.68a2.5 2.5 0 0 0-1.66-2.36V7.7a2.5 2.5 0 0 0-.74-1.77l-3.2-3.19A2.5 2.5 0 0 0 14.65 2H6.16a2.5 2.5 0 0 0-2.5 2.5Zm2.5-.84h7.5v2.5a2.5 2.5 0 0 0 2.5 2.5h2.5v1.66H5.34V4.5a.83.83 0 0 1 .83-.83Zm9.17.34 3 2.99h-2.16a.83.83 0 0 1-.84-.84V4.01ZM4.5 12h15a.83.83 0 0 1 .84.83v6.68a.83.83 0 0 1-.84.83h-15a.83.83 0 0 1-.84-.83v-6.68A.83.83 0 0 1 4.5 12Z"/>
</svg>
