<svg xmlns="http://www.w3.org/2000/svg" width="40" height="40">
  <path d="M20 0a20 20 0 1 0 0 40 20 20 0 0 0 0-40Zm9.61 15.08c.02.2.02.42.02.64 0 6.55-5 14.1-14.12 14.1-2.8 0-5.42-.82-7.61-2.22a9.95 9.95 0 0 0 7.35-2.05 4.96 4.96 0 0 1-4.63-3.44c.76.1 1.45.1 2.23-.1a4.96 4.96 0 0 1-3.97-4.86v-.06c.66.37 1.43.6 2.24.63a4.96 4.96 0 0 1-1.54-6.63 14.08 14.08 0 0 0 10.23 5.19 4.97 4.97 0 0 1 8.46-4.54 9.8 9.8 0 0 0 3.15-1.2 4.94 4.94 0 0 1-2.18 2.74c1-.11 1.97-.39 2.86-.78a10.4 10.4 0 0 1-2.49 2.58Z"/>
</svg>
