<svg xmlns="http://www.w3.org/2000/svg" width="21" height="12">
  <path d="M19.58.85c.14-.46 0-.8-.66-.8h-2.2c-.55 0-.8.3-.95.62 0 0-1.11 2.72-2.7 4.48-.5.51-.74.67-1.02.67-.13 0-.34-.16-.34-.62V.85c0-.55-.16-.8-.62-.8H7.64c-.35 0-.56.26-.56.5 0 .53.8.65.88 2.14v3.23c0 .7-.13.83-.41.83C6.8 6.75 5 4.03 3.92.9 3.72.3 3.5.05 2.94.05H.75C.12.05 0 .35 0 .67c0 .58.74 3.46 3.46 7.27 1.81 2.6 4.36 4.01 6.69 4.01 1.4 0 1.56-.31 1.56-.85V9.13c0-.62.14-.75.58-.75.32 0 .88.16 2.18 1.42 1.49 1.48 1.73 2.15 2.57 2.15h2.19c.63 0 .94-.31.76-.93-.2-.62-.9-1.51-1.85-2.57-.51-.6-1.28-1.25-1.51-1.58-.33-.42-.23-.6 0-.98 0 0 2.67-3.76 2.95-5.04Z"/>
</svg>
