<svg xmlns="http://www.w3.org/2000/svg" width="22" height="16">
  <path id="youtube-icon-rectangle" stroke-linecap="round" stroke-linejoin="round" stroke-width="1.5" d="m13 8-3.5 2V6L13 8Z"/>
  <path id="youtube-icon-border" stroke-width="1.5" d="M1 8.7V7.3c0-2.9 0-4.35.9-5.28.91-.93 2.34-.97 5.19-1.05a144.8 144.8 0 0 1 7.82 0c2.85.08 4.28.12 5.18 1.05.91.93.91 2.38.91 5.27v1.42c0 2.9 0 4.34-.9 5.27-.91.93-2.34.97-5.19 1.05a140.97 140.97 0 0 1-7.82 0c-2.85-.08-4.28-.12-5.18-1.05C1 13.05 1 11.6 1 8.71Z"/>
</svg>
