<svg width="204" height="98" viewBox="0 0 204 98" fill="none" xmlns="http://www.w3.org/2000/svg">
<path fill-rule="evenodd" clip-rule="evenodd" d="M0 32.2317H59.1535V36.443H32.8507V70.4665H26.3029V36.443H0V32.2317ZM0.976744 33.2099V35.4648H27.2796V69.4883H31.8739V35.4648H58.1768V33.2099H0.976744Z" fill="#4D4D4D"/>
<path fill-rule="evenodd" clip-rule="evenodd" d="M144.846 32.2317H204V36.443H177.697V70.4665H171.149V36.443H144.846V32.2317ZM145.823 33.2099V35.4648H172.126V69.4883H176.72V35.4648H203.023V33.2099H145.823Z" fill="#4D4D4D"/>
<path fill-rule="evenodd" clip-rule="evenodd" d="M102 0L172.822 70.4665H31.1779L102 0ZM102 1.37888L33.5469 69.4883H170.453L102 1.37888Z" fill="#4D4D4D"/>
<path fill-rule="evenodd" clip-rule="evenodd" d="M69.8077 32.7207H134.204L102 64.7514L69.8077 32.7207Z" fill="#E5E5E5"/>
<path fill-rule="evenodd" clip-rule="evenodd" d="M69.8275 32.0514L102 64.0623L134.173 32.0628L134.693 32.7864V70.4666H128.145V44.6536L102.562 70.109L101.486 70.156L75.8671 44.6648V70.4666H69.3193V32.8969L69.8275 32.0514ZM133.716 33.8961L102 65.441L70.296 33.8964V69.4884H74.8904V42.3141L101.871 69.16L102.141 69.1482L129.122 42.3029V69.4884H133.716V33.8961Z" fill="#4D4D4D"/>
<path d="M158.352 93.9314C158.594 93.9429 158.837 93.911 159.068 93.8372C159.223 93.7805 159.355 93.6737 159.443 93.5338C159.519 93.401 159.558 93.2502 159.556 93.0972C159.559 92.9373 159.514 92.7801 159.426 92.6458C159.319 92.4989 159.163 92.3949 158.986 92.3525C158.887 92.3245 158.785 92.3059 158.683 92.2971C158.568 92.2858 158.426 92.2808 158.255 92.2808H157.292V93.9314H158.352ZM157.292 94.9109V96.71H158.059C158.264 96.71 158.44 96.705 158.588 96.6936C158.715 96.6853 158.842 96.6668 158.966 96.6383C159.108 96.6114 159.246 96.5642 159.374 96.4981C159.473 96.4469 159.562 96.3791 159.638 96.2977C159.702 96.226 159.752 96.1416 159.782 96.05C159.811 95.9561 159.826 95.8582 159.824 95.7598C159.828 95.5922 159.776 95.428 159.677 95.2923C159.557 95.1457 159.394 95.0407 159.21 94.9925C159.104 94.9601 158.995 94.9394 158.884 94.9306C158.725 94.916 158.565 94.9095 158.404 94.9109L157.292 94.9109ZM160.766 93.0011C160.769 93.2665 160.705 93.5285 160.578 93.7621C160.435 94.0117 160.219 94.2122 159.959 94.3373V94.3568C160.113 94.4085 160.261 94.4785 160.399 94.5654C160.529 94.6462 160.644 94.7475 160.74 94.8654C160.835 94.9836 160.909 95.1169 160.959 95.2597C161.014 95.4179 161.042 95.5844 161.04 95.7519C161.037 95.9212 161.012 96.0894 160.964 96.252C160.911 96.4394 160.822 96.6152 160.704 96.7703C160.565 96.9508 160.396 97.1067 160.204 97.2315C159.963 97.3862 159.696 97.4991 159.417 97.5656C159.338 97.5851 159.25 97.6015 159.156 97.6177C159.061 97.6339 158.956 97.647 158.842 97.6585C158.727 97.6697 158.598 97.6779 158.457 97.6829C158.318 97.6878 158.159 97.6894 157.982 97.6894H156.116V91.3016H158.347C158.736 91.2896 159.125 91.338 159.499 91.445C159.7 91.5073 159.891 91.5996 160.065 91.7186C160.216 91.8238 160.35 91.9513 160.462 92.0967C160.562 92.2293 160.639 92.3773 160.691 92.5349C160.74 92.6855 160.765 92.8428 160.766 93.0011ZM151.076 96.71H154.232V97.6893H149.9V91.3015H154.06V92.2808H151.076V93.9314H153.638V94.9109H151.076L151.076 96.71ZM144.537 94.2085C144.622 94.2203 144.707 94.2274 144.793 94.2298C144.898 94.2347 145.006 94.238 145.117 94.238C145.385 94.2426 145.652 94.2169 145.913 94.1613C146.098 94.1229 146.274 94.0511 146.432 93.9495C146.555 93.8673 146.654 93.7528 146.716 93.6186C146.774 93.4855 146.803 93.3416 146.801 93.1965C146.805 93.0251 146.76 92.856 146.671 92.7093C146.562 92.5551 146.403 92.4426 146.221 92.3901C146.086 92.3479 145.946 92.32 145.805 92.3068C145.604 92.2876 145.401 92.2789 145.199 92.2808H144.537V94.2085ZM145.137 95.2156C145.03 95.2156 144.927 95.2141 144.824 95.2107C144.723 95.209 144.626 95.2025 144.537 95.1927V97.6893H143.361V91.3015H145.214C145.485 91.2992 145.756 91.3128 146.026 91.3421C146.237 91.3649 146.445 91.4058 146.648 91.4644C147.043 91.5709 147.396 91.7936 147.661 92.1033C147.906 92.4234 148.032 92.8187 148.016 93.2211C148.02 93.5101 147.954 93.7958 147.823 94.0538C147.691 94.3055 147.498 94.5209 147.263 94.6811C146.988 94.8661 146.683 95.0003 146.36 95.0772C145.96 95.175 145.549 95.2215 145.137 95.2156ZM138.724 92.8382C138.5 93.5079 138.3 94.0652 138.125 94.515L137.903 95.0819H139.562L139.343 94.515C139.166 94.062 138.966 93.5046 138.742 92.8382H138.724ZM139.943 96.0613H137.524L136.896 97.6893H135.643L138.192 91.3015H139.266L141.813 97.6893H140.571L139.943 96.0613ZM129.422 97.6893V91.3015H130.598V94.2085H130.616L133.04 91.3015H134.498L131.822 94.466L134.719 97.6893H133.212L130.616 94.8049H130.598V97.6893H129.422ZM127.538 94.4954C127.543 94.9503 127.473 95.4029 127.33 95.8349C127.201 96.2222 126.994 96.5789 126.721 96.8827C126.447 97.1797 126.111 97.4129 125.736 97.5655C124.882 97.8892 123.938 97.8892 123.083 97.5655C122.709 97.4125 122.373 97.1794 122.099 96.8827C121.826 96.5789 121.618 96.2222 121.49 95.8349C121.212 94.9633 121.212 94.0276 121.49 93.1559C121.618 92.7686 121.826 92.4119 122.099 92.1081C122.373 91.8114 122.709 91.5783 123.083 91.4253C123.938 91.1014 124.882 91.1014 125.736 91.4253C126.111 91.5779 126.447 91.8111 126.721 92.1081C126.994 92.4119 127.201 92.7686 127.33 93.1559C127.473 93.5879 127.543 94.0405 127.538 94.4954ZM126.324 94.4954C126.331 94.1505 126.282 93.8067 126.18 93.477C126.099 93.2097 125.963 92.9619 125.782 92.7486C125.618 92.5582 125.411 92.4091 125.178 92.3133C124.684 92.1223 124.136 92.1223 123.642 92.3133C123.409 92.4095 123.202 92.5585 123.037 92.7486C122.857 92.9627 122.722 93.2103 122.639 93.477C122.447 94.143 122.447 94.8495 122.639 95.5155C122.722 95.7813 122.858 96.0278 123.037 96.2407C123.203 96.4296 123.409 96.578 123.642 96.6741C124.135 96.8699 124.685 96.8699 125.178 96.6741C125.41 96.5783 125.617 96.4299 125.782 96.2407C125.963 96.0286 126.099 95.7818 126.18 95.5155C126.282 95.1852 126.331 94.8409 126.324 94.4954ZM118.192 97.6893H117.018V92.2808H114.944V91.3015H120.26V92.2808H118.192L118.192 97.6893ZM105.644 93.9314C105.886 93.9429 106.129 93.911 106.36 93.8372C106.515 93.7805 106.647 93.6737 106.735 93.5338C106.811 93.401 106.85 93.2502 106.848 93.0972C106.851 92.9372 106.806 92.7801 106.718 92.6458C106.611 92.4989 106.455 92.3948 106.278 92.3525C106.179 92.3245 106.077 92.3059 105.975 92.2971C105.86 92.2858 105.718 92.2808 105.547 92.2808H104.584V93.9314H105.644ZM104.584 94.9109V96.71H105.351C105.555 96.71 105.732 96.705 105.88 96.6936C106.007 96.6853 106.134 96.6668 106.258 96.6383C106.4 96.6114 106.538 96.5642 106.666 96.4981C106.765 96.4469 106.854 96.3791 106.929 96.2977C106.994 96.2261 107.043 96.1417 107.074 96.05C107.103 95.9561 107.117 95.8582 107.116 95.7598C107.119 95.5922 107.068 95.4281 106.969 95.2923C106.849 95.1458 106.686 95.0408 106.502 94.9925C106.396 94.9601 106.287 94.9394 106.176 94.9306C106.017 94.916 105.856 94.9095 105.696 94.9109L104.584 94.9109ZM108.058 93.0011C108.061 93.2666 107.996 93.5285 107.87 93.7621C107.726 94.0117 107.511 94.2122 107.251 94.3373V94.3568C107.405 94.4084 107.553 94.4785 107.691 94.5654C107.82 94.6462 107.935 94.7475 108.032 94.8654C108.127 94.9836 108.201 95.1169 108.251 95.2597C108.306 95.418 108.333 95.5844 108.332 95.7519C108.329 95.9212 108.304 96.0894 108.256 96.252C108.203 96.4394 108.114 96.6152 107.996 96.7703C107.856 96.9507 107.687 97.1067 107.496 97.2315C107.254 97.3862 106.988 97.4991 106.708 97.5656C106.63 97.5851 106.541 97.6015 106.448 97.6177C106.353 97.6339 106.248 97.647 106.134 97.6585C106.019 97.6697 105.89 97.6779 105.749 97.6829C105.609 97.6878 105.451 97.6894 105.274 97.6894H103.408V91.3016H105.639C106.028 91.2896 106.416 91.338 106.79 91.445C106.992 91.5073 107.183 91.5995 107.357 91.7186C107.508 91.8237 107.641 91.9512 107.753 92.0967C107.854 92.2292 107.931 92.3773 107.983 92.5349C108.032 92.6855 108.057 92.8427 108.058 93.0011ZM101.524 94.4954C101.529 94.9503 101.459 95.4029 101.316 95.8349C101.187 96.2222 100.98 96.5788 100.707 96.8827C100.433 97.1797 100.097 97.4129 99.7226 97.5655C98.868 97.8892 97.9239 97.8892 97.0693 97.5655C96.695 97.4124 96.3589 97.1793 96.0849 96.8827C95.8117 96.5789 95.6043 96.2222 95.4758 95.8349C95.1982 94.9633 95.1982 94.0275 95.4758 93.1559C95.6043 92.7686 95.8116 92.4119 96.0849 92.1081C96.3588 91.8114 96.6949 91.5783 97.0693 91.4253C97.9238 91.1014 98.8681 91.1014 99.7226 91.4253C100.097 91.5779 100.433 91.811 100.707 92.1081C100.98 92.4119 101.188 92.7686 101.316 93.1559C101.459 93.5879 101.53 94.0405 101.524 94.4954ZM100.311 94.4954C100.317 94.1504 100.269 93.8066 100.166 93.477C100.085 93.2097 99.9495 92.9618 99.7684 92.7486C99.604 92.5583 99.397 92.4092 99.1641 92.3133C98.67 92.1223 98.122 92.1223 97.6278 92.3133C97.3951 92.4095 97.1881 92.5586 97.0234 92.7486C96.8436 92.9627 96.7083 93.2103 96.6255 93.477C96.4334 94.143 96.4334 94.8495 96.6255 95.5155C96.7083 95.7813 96.8436 96.0278 97.0234 96.2407C97.1887 96.4296 97.3955 96.5779 97.6278 96.6741C98.1211 96.8699 98.6709 96.8699 99.1641 96.6741C99.3965 96.5783 99.6034 96.4299 99.7684 96.2407C99.9495 96.0286 100.085 95.7818 100.166 95.5155C100.268 95.1852 100.317 94.8409 100.311 94.4954ZM90.1931 94.2085C90.2778 94.2203 90.3631 94.2275 90.4486 94.2298C90.5533 94.2347 90.6614 94.238 90.7728 94.238C91.0402 94.2426 91.3072 94.2169 91.5688 94.1613C91.7534 94.1229 91.9293 94.0511 92.0879 93.9495C92.2111 93.8672 92.3092 93.7528 92.3713 93.6186C92.4294 93.4855 92.4584 93.3416 92.4565 93.1965C92.4611 93.0251 92.4162 92.856 92.3271 92.7093C92.2177 92.5551 92.0589 92.4425 91.8767 92.3901C91.7414 92.3479 91.6019 92.32 91.4607 92.3068C91.2593 92.2876 91.057 92.2789 90.8546 92.2808H90.193L90.1931 94.2085ZM90.7926 95.2156C90.6861 95.2156 90.5828 95.2141 90.4797 95.2107C90.3782 95.209 90.2814 95.2025 90.1931 95.1927V97.6893H89.0171V91.3015H90.8696C91.1409 91.2992 91.4122 91.3128 91.6819 91.3421C91.8924 91.3649 92.1006 91.4058 92.3041 91.4644C92.6985 91.5709 93.0514 91.7936 93.3164 92.1033C93.5618 92.4234 93.6874 92.8187 93.6717 93.2211C93.6758 93.5101 93.6094 93.7958 93.4784 94.0538C93.3462 94.3055 93.1539 94.5209 92.9184 94.6811C92.6439 94.8661 92.3382 95.0003 92.0159 95.0772C91.6157 95.175 91.2046 95.2215 90.7926 95.2156ZM87.1328 94.4954C87.1382 94.9503 87.0679 95.4029 86.9248 95.8349C86.7963 96.2222 86.5888 96.579 86.3155 96.8827C86.0419 97.1797 85.7058 97.4129 85.3313 97.5656C84.4767 97.8892 83.5326 97.8892 82.678 97.5656C82.3037 97.4125 81.9677 97.1794 81.6938 96.8827C81.4205 96.5789 81.2131 96.2222 81.0845 95.8349C80.8072 94.9633 80.8072 94.0276 81.0845 93.1559C81.2131 92.7686 81.4205 92.412 81.6938 92.1081C81.9676 91.8114 82.3036 91.5783 82.678 91.4253C83.5325 91.1014 84.4767 91.1014 85.3313 91.4253C85.7059 91.5779 86.0419 91.8111 86.3155 92.1081C86.5889 92.4119 86.7963 92.7686 86.9248 93.1559C87.0679 93.5879 87.1382 94.0406 87.1328 94.4954ZM85.9192 94.4954C85.9259 94.1505 85.8773 93.8067 85.7751 93.477C85.6936 93.2098 85.5583 92.9619 85.3773 92.7486C85.2129 92.5583 85.0058 92.4091 84.7727 92.3133C84.2786 92.1223 83.7306 92.1223 83.2365 92.3133C83.0038 92.4096 82.7969 92.5586 82.6322 92.7486C82.4523 92.9627 82.3171 93.2103 82.2344 93.477C82.0419 94.143 82.0419 94.8496 82.2344 95.5156C82.3171 95.7813 82.4524 96.0278 82.6322 96.2407C82.7975 96.4296 83.0043 96.5779 83.2365 96.6741C83.7297 96.8699 84.2795 96.8699 84.7727 96.6741C85.0053 96.5783 85.2123 96.43 85.3773 96.2407C85.5582 96.0286 85.6936 95.7818 85.7751 95.5156C85.8771 95.1853 85.9258 94.8409 85.9192 94.4954ZM77.7867 97.6893H76.6126V92.2809H74.5391V91.3015H79.8554V92.2809H77.7867L77.7867 97.6893ZM68.3179 97.6893V91.3015H69.4938V94.2085H69.512L71.9359 91.3015H73.3935L70.7173 94.4661L73.6146 97.6893H72.1078L69.5119 94.8049H69.4938V97.6893H68.3179ZM63.2777 96.71H66.4338V97.6893H62.1018V91.3015H66.2618V92.2809H63.2777V93.9314H65.8392V94.9109H63.2777L63.2777 96.71ZM58.4846 97.6893H57.3104V92.2809H55.237V91.3015H60.5532V92.2809H58.4846L58.4846 97.6893ZM52.4568 91.3015H53.6882V97.6893H52.5141V94.7481C52.5141 94.3829 52.532 93.7913 52.5714 92.9768H52.5517C52.3306 93.3498 51.9468 93.9245 51.4005 94.7008L49.3089 97.6893H48.0757V91.3015H49.2516V94.243C49.2516 94.7103 49.232 95.2991 49.1927 96.0092H49.2123C49.417 95.6719 49.7948 95.1087 50.3457 94.3194L52.4568 91.3015ZM42.8864 92.6147C43.196 93.063 43.4132 93.3847 43.538 93.5797H43.5628C43.7347 93.3107 43.9509 92.9907 44.2112 92.6199L45.1269 91.3015H46.4796L44.2441 94.4432L46.5763 97.6893H45.2415L44.2391 96.2619C43.9935 95.9114 43.7664 95.5806 43.5578 95.2694H43.538C43.3219 95.5937 43.0949 95.9246 42.8569 96.2619L41.8546 97.6893H40.5214L42.852 94.4432L40.6164 91.3015H41.9692L42.8864 92.6147ZM35.83 94.2085C35.9147 94.2203 36 94.2275 36.0856 94.2298C36.1903 94.2347 36.2983 94.238 36.4098 94.238C36.6772 94.2426 36.9442 94.2169 37.2058 94.1613C37.3903 94.1229 37.5663 94.0511 37.7249 93.9495C37.8481 93.8673 37.9461 93.7528 38.0081 93.6186C38.0662 93.4855 38.0953 93.3416 38.0933 93.1965C38.098 93.0251 38.0531 92.856 37.9639 92.7093C37.8546 92.5551 37.6958 92.4425 37.5137 92.3901C37.3783 92.3479 37.2389 92.32 37.0977 92.3068C36.8963 92.2876 36.6939 92.2789 36.4916 92.2808H35.83L35.83 94.2085ZM36.4293 95.2156C36.323 95.2156 36.2197 95.2141 36.1166 95.2107C36.0151 95.209 35.9183 95.2025 35.83 95.1927V97.6893H34.654V91.3015H36.5063C36.7776 91.2992 37.0489 91.3128 37.3186 91.3421C37.5292 91.3649 37.7375 91.4058 37.941 91.4644C38.3354 91.5708 38.6882 91.7935 38.9531 92.1033C39.1986 92.4234 39.3244 92.8187 39.3086 93.2211C39.3127 93.5101 39.2464 93.7958 39.1154 94.0538C38.9832 94.3055 38.7908 94.5209 38.5553 94.6811C38.2808 94.8661 37.9751 95.0003 37.6528 95.0772C37.2525 95.175 36.8414 95.2215 36.4293 95.2156ZM30.0167 92.8382C29.7922 93.5079 29.5924 94.0652 29.4172 94.515L29.1961 95.0819H30.8551L30.6358 94.515C30.4588 94.062 30.259 93.5046 30.0346 92.8382H30.0167ZM31.2351 96.0613H28.8161L28.189 97.6893H26.936L29.4843 91.3015H30.5587L33.1055 97.6893H31.8641L31.2351 96.0613ZM174.024 83.3525L172.575 85.7545H171.236L172.835 83.1715V83.1519C172.463 83.0319 172.138 82.7974 171.908 82.4822C171.699 82.1591 171.594 81.7799 171.607 81.3955C171.599 80.9981 171.715 80.6081 171.939 80.2789C172.174 79.9445 172.507 79.6907 172.892 79.5524C173.061 79.4889 173.236 79.4424 173.415 79.4138C173.634 79.3806 173.855 79.3648 174.076 79.3665H176.443V85.7545H175.267V83.3525H174.024ZM175.267 80.3508H174.183C174.043 80.349 173.903 80.3577 173.764 80.3769C173.656 80.3914 173.551 80.4175 173.449 80.4549C173.254 80.526 173.086 80.6573 172.971 80.8298C172.868 80.9921 172.814 81.1805 172.815 81.3725C172.815 81.4733 172.826 81.5739 172.848 81.6724C172.87 81.7667 172.909 81.8565 172.961 81.938C173.017 82.022 173.088 82.095 173.171 82.1533C173.269 82.2204 173.377 82.271 173.492 82.303C173.592 82.3303 173.695 82.3494 173.798 82.3602C173.943 82.3742 174.089 82.3807 174.235 82.3796H175.267L175.267 80.3508ZM166.501 80.9034C166.277 81.573 166.077 82.1302 165.902 82.58L165.681 83.1471H167.34L167.12 82.58C166.943 82.127 166.743 81.5697 166.519 80.9034H166.501ZM167.72 84.1264H165.301L164.673 85.7545H163.42L165.969 79.3665H167.043L169.59 85.7545H168.349L167.72 84.1264ZM156.741 85.7545V79.3665H157.917V82.2736H157.935L160.359 79.3665H161.816L159.14 82.5312L162.038 85.7545H160.531L157.935 82.8701H157.917V85.7545H156.741ZM153.026 80.2352C152.723 80.2327 152.423 80.2862 152.14 80.3931C151.877 80.4929 151.64 80.6492 151.445 80.851C151.243 81.0639 151.088 81.3172 150.992 81.5942C150.877 81.9181 150.822 82.2596 150.828 82.6029C150.822 82.9391 150.872 83.2741 150.977 83.5937C151.065 83.8601 151.211 84.1038 151.405 84.3074C151.594 84.5015 151.826 84.6493 152.082 84.7393C152.374 84.8411 152.682 84.8907 152.992 84.8857C153.241 84.885 153.49 84.866 153.737 84.8289C153.977 84.7926 154.215 84.7365 154.446 84.6609V85.6681C154.208 85.7346 153.966 85.7852 153.722 85.8197C153.455 85.856 153.186 85.874 152.916 85.8734C152.428 85.8829 151.942 85.8045 151.482 85.642C151.092 85.5028 150.739 85.2797 150.446 84.9885C150.166 84.7009 149.953 84.3554 149.822 83.9766C149.679 83.5575 149.609 83.1172 149.614 82.6746C149.61 82.2133 149.685 81.7547 149.837 81.3188C149.977 80.9183 150.195 80.5498 150.481 80.2352C150.773 79.9213 151.132 79.6754 151.531 79.515C151.984 79.3333 152.47 79.2424 152.959 79.2475C153.218 79.2464 153.476 79.2649 153.732 79.303C153.955 79.3346 154.175 79.3864 154.389 79.4578V80.4501C154.155 80.3756 153.916 80.32 153.673 80.2839C153.459 80.2519 153.242 80.2356 153.026 80.2352ZM144.081 82.2736C144.166 82.2855 144.251 82.2926 144.337 82.2949C144.442 82.2999 144.55 82.303 144.661 82.303C144.929 82.3076 145.196 82.2819 145.457 82.2263C145.642 82.188 145.818 82.1162 145.976 82.0146C146.099 81.9323 146.197 81.8179 146.26 81.6838C146.318 81.5507 146.347 81.4068 146.345 81.2617C146.349 81.0903 146.305 80.9212 146.215 80.7745C146.106 80.6202 145.947 80.5076 145.765 80.4549C145.63 80.413 145.49 80.3852 145.349 80.372C145.148 80.3528 144.945 80.3441 144.743 80.346H144.081V82.2736ZM144.681 83.2808C144.574 83.2808 144.471 83.2791 144.368 83.2758C144.266 83.2741 144.17 83.2676 144.081 83.2579V85.7545H142.905V79.3665H144.758C145.029 79.3643 145.3 79.3779 145.57 79.4073C145.781 79.43 145.989 79.4709 146.192 79.5295C146.587 79.636 146.94 79.8587 147.205 80.1685C147.45 80.4886 147.576 80.8838 147.56 81.2862C147.564 81.5753 147.498 81.861 147.367 82.1189C147.234 82.3706 147.042 82.586 146.807 82.7463C146.532 82.9313 146.226 83.0654 145.904 83.1422C145.504 83.2401 145.093 83.2867 144.681 83.2808ZM137.407 84.775H140.563V85.7545H136.231V79.3665H140.391V80.346H137.407V81.9966H139.968V82.9761H137.407V84.775ZM132.155 85.7545H130.981V80.346H128.908V79.3665H134.224V80.346H132.155V85.7545ZM125.817 80.2352C125.514 80.2327 125.213 80.2862 124.93 80.3931C124.668 80.4929 124.431 80.6492 124.236 80.851C124.034 81.0639 123.879 81.3173 123.782 81.5942C123.668 81.9181 123.613 82.2597 123.619 82.6029C123.612 82.9392 123.662 83.2741 123.768 83.5937C123.856 83.8601 124.002 84.1039 124.195 84.3074C124.385 84.5015 124.617 84.6493 124.873 84.7393C125.165 84.8412 125.473 84.8907 125.782 84.8858C126.032 84.8851 126.281 84.8661 126.527 84.8289C126.768 84.7927 127.005 84.7365 127.237 84.661V85.6681C126.999 85.7346 126.757 85.7853 126.513 85.8197C126.246 85.856 125.976 85.874 125.707 85.8735C125.219 85.8829 124.733 85.8045 124.272 85.642C123.883 85.5029 123.529 85.2797 123.237 84.9885C122.957 84.701 122.744 84.3555 122.613 83.9766C122.47 83.5575 122.4 83.1172 122.405 82.6746C122.401 82.2133 122.476 81.7547 122.628 81.3189C122.767 80.9183 122.986 80.5498 123.271 80.2352C123.564 79.9213 123.922 79.6754 124.321 79.515C124.775 79.3333 125.26 79.2424 125.749 79.2475C126.008 79.2464 126.267 79.265 126.522 79.303C126.746 79.3346 126.965 79.3865 127.179 79.4578V80.4502C126.946 80.3756 126.706 80.32 126.463 80.2839C126.249 80.2519 126.033 80.2356 125.817 80.2352ZM117.694 80.9034C117.47 81.5731 117.27 82.1302 117.095 82.5801L116.874 83.1471H118.533L118.313 82.5801C118.136 82.127 117.937 81.5697 117.712 80.9034H117.694ZM118.913 84.1265H116.494L115.867 85.7545H114.614L117.162 79.3665H118.236L120.783 85.7545H119.542L118.913 84.1265ZM109.325 84.0401C109.465 83.5382 109.64 82.9988 109.849 82.422L110.956 79.3665H112.607V85.7545H111.432V82.5181C111.432 82.044 111.45 81.4932 111.49 80.8657H111.446C111.391 81.0466 111.328 81.2504 111.254 81.477C111.18 81.7033 111.103 81.9251 111.023 82.1451L109.695 85.7545H108.936L107.608 82.1451C107.528 81.9251 107.451 81.7033 107.377 81.477C107.303 81.2504 107.24 81.0467 107.186 80.8657H107.141C107.181 81.4539 107.2 82.0032 107.2 82.5133V85.7545H106.024V79.3665H107.666L108.773 82.4073C108.959 82.9141 109.134 83.4584 109.297 84.0401H109.325ZM94.9029 83.3525L93.4535 85.7545H92.1154L93.7139 83.1715V83.1519C93.3416 83.0319 93.017 82.7974 92.7869 82.4822C92.5776 82.1591 92.4724 81.7799 92.4855 81.3955C92.4781 80.9981 92.5942 80.6081 92.818 80.2789C93.0527 79.9445 93.3857 79.6907 93.7712 79.5524C93.9402 79.4889 94.1153 79.4424 94.2937 79.4138C94.5126 79.3806 94.7339 79.3648 94.9553 79.3665H97.3219V85.7545H96.1459V83.3525H94.9029ZM96.1459 80.3508H95.0618C94.9216 80.349 94.7815 80.3577 94.6426 80.3769C94.5352 80.3914 94.4298 80.4175 94.3282 80.4549C94.1327 80.526 93.9651 80.6573 93.8499 80.8298C93.7469 80.9921 93.6928 81.1805 93.6942 81.3725C93.6941 81.4733 93.7051 81.5739 93.727 81.6724C93.7493 81.7667 93.7875 81.8565 93.8401 81.938C93.896 82.022 93.9671 82.095 94.0497 82.1533C94.1477 82.2204 94.2562 82.271 94.3707 82.303C94.471 82.3303 94.5734 82.3494 94.6768 82.3602C94.8222 82.3742 94.9682 82.3807 95.1142 82.3796H96.1459V80.3508ZM87.3799 80.9034C87.1556 81.573 86.9557 82.1302 86.7806 82.5801L86.5594 83.1471H88.2184L87.9991 82.5801C87.8221 82.127 87.6223 81.5697 87.398 80.9034H87.3799ZM88.5984 84.1264H86.1794L85.552 85.7545H84.2993L86.8476 79.3665H87.922L90.4688 85.7545H89.2274L88.5984 84.1264ZM77.6199 85.7545V79.3665H78.7958V82.2736H78.8137L81.2376 79.3665H82.6953L80.0191 82.5312L82.9164 85.7545H81.4097L78.8137 82.8701H78.7958V85.7545H77.6199ZM73.9047 80.2352C73.6021 80.2327 73.3016 80.2862 73.0186 80.3931C72.7561 80.4929 72.519 80.6492 72.3244 80.851C72.1219 81.0639 71.9672 81.3172 71.8706 81.5942C71.7561 81.9181 71.7006 82.2597 71.7067 82.6029C71.7002 82.9392 71.7506 83.2741 71.8558 83.5937C71.9436 83.8601 72.0897 84.1039 72.2834 84.3074C72.4729 84.5015 72.7049 84.6493 72.9613 84.7393C73.2533 84.8411 73.561 84.8907 73.8703 84.8858C74.1198 84.8851 74.3689 84.8661 74.6156 84.8289C74.8563 84.7927 75.0935 84.7365 75.3248 84.6609V85.6681C75.0871 85.7346 74.8452 85.7853 74.6008 85.8197C74.3338 85.856 74.0646 85.874 73.7951 85.8735C73.3068 85.8829 72.8207 85.8045 72.3604 85.642C71.9711 85.5029 71.6176 85.2797 71.3252 84.9885C71.045 84.701 70.832 84.3555 70.7012 83.9766C70.5582 83.5575 70.4878 83.1172 70.4932 82.6746C70.4888 82.2133 70.5642 81.7547 70.7159 81.3189C70.8553 80.9183 71.0743 80.5498 71.3597 80.2352C71.6522 79.9213 72.0106 79.6754 72.4094 79.515C72.8632 79.3333 73.3486 79.2424 73.8377 79.2475C74.0964 79.2464 74.3548 79.2649 74.6106 79.303C74.8338 79.3346 75.0537 79.3864 75.2674 79.4578V80.4501C75.0337 80.3756 74.7944 80.32 74.5517 80.2839C74.3375 80.2519 74.1213 80.2356 73.9047 80.2352ZM65.2828 84.7749H68.4389V85.7545H64.1069V79.3665H68.2669V80.346H65.2829V81.9966H67.8443V82.9761H65.2829L65.2828 84.7749ZM60.3 85.7545V83.3525C60.0655 83.4215 59.8271 83.4764 59.5861 83.517C59.3279 83.5654 59.0659 83.5905 58.8032 83.592C58.5388 83.5957 58.2749 83.5683 58.017 83.5104C57.813 83.465 57.6181 83.3857 57.4406 83.2758C57.2863 83.1801 57.1531 83.0543 57.049 82.9059C56.9457 82.7558 56.8656 82.591 56.8116 82.4172C56.7616 82.2514 56.7287 82.081 56.7133 81.9086C56.697 81.7229 56.6872 81.516 56.6872 81.291V79.3665H57.8629V81.3091C57.8622 81.4543 57.8688 81.5995 57.8827 81.7441C57.8911 81.8567 57.9153 81.9675 57.9547 82.0734C58.0092 82.2461 58.1283 82.3913 58.2873 82.479C58.4859 82.571 58.7039 82.6135 58.9227 82.6029C59.1612 82.6022 59.3992 82.5793 59.6334 82.5343C59.8587 82.4928 60.0813 82.4379 60.3 82.3699V79.3665H61.4759V85.7545L60.3 85.7545ZM50.9626 82.2736C51.0472 82.2855 51.1325 82.2926 51.2179 82.2949C51.3228 82.2999 51.4309 82.303 51.5422 82.303C51.8096 82.3076 52.0766 82.2819 52.3381 82.2263C52.5228 82.1879 52.6988 82.1162 52.8574 82.0146C52.9806 81.9324 53.0786 81.8179 53.1407 81.6838C53.1987 81.5507 53.2277 81.4068 53.2259 81.2617C53.2305 81.0903 53.1856 80.9212 53.0965 80.7745C52.9871 80.6202 52.8282 80.5075 52.6461 80.4549C52.5107 80.413 52.3713 80.3852 52.2301 80.372C52.0287 80.3528 51.8265 80.3441 51.6242 80.346H50.9626V82.2736ZM51.5619 83.2808C51.4554 83.2808 51.3523 83.2791 51.249 83.2758C51.1475 83.2741 51.0509 83.2676 50.9626 83.2579V85.7545H49.7866V79.3665H51.6389C51.9103 79.3642 52.1815 79.3779 52.4512 79.4073C52.6618 79.43 52.8701 79.4709 53.0736 79.5295C53.468 79.636 53.8208 79.8587 54.0857 80.1685C54.3313 80.4885 54.457 80.8838 54.4413 81.2862C54.4452 81.5753 54.3789 81.861 54.2479 82.1189C54.1156 82.3706 53.9232 82.5861 53.6877 82.7463C53.4133 82.9313 53.1076 83.0654 52.7854 83.1422C52.3851 83.2401 51.974 83.2867 51.5619 83.2808ZM47.4439 82.5606C47.4493 83.0154 47.379 83.468 47.2359 83.8999C47.1073 84.2873 46.8999 84.644 46.6267 84.9479C46.353 85.2449 46.0169 85.478 45.6423 85.6307C44.7878 85.9544 43.8436 85.9544 42.9891 85.6307C42.6147 85.4776 42.2787 85.2445 42.0048 84.9479C41.7316 84.644 41.5241 84.2872 41.3956 83.8999C41.1183 83.0283 41.1183 82.0927 41.3956 81.2211C41.5241 80.8338 41.7316 80.4771 42.0048 80.1733C42.2787 79.8765 42.6147 79.6434 42.9891 79.4903C43.8436 79.1666 44.7878 79.1666 45.6423 79.4903C46.017 79.6429 46.3531 79.8762 46.6267 80.1733C46.8999 80.4771 47.1073 80.8338 47.2359 81.2211C47.379 81.6531 47.4493 82.1057 47.4439 82.5606ZM46.2303 82.5606C46.2369 82.2156 46.1883 81.8718 46.0862 81.542C46.0047 81.2747 45.8692 81.0269 45.6881 80.8136C45.5238 80.6233 45.3168 80.4742 45.0838 80.3785C44.5897 80.1875 44.0417 80.1875 43.5476 80.3785C43.3149 80.4747 43.1079 80.6237 42.9433 80.8136C42.7635 81.0277 42.6282 81.2753 42.5452 81.542C42.3531 82.2081 42.3531 82.9146 42.5452 83.5807C42.6282 83.8464 42.7635 84.0929 42.9433 84.3059C43.1085 84.4948 43.3153 84.6431 43.5476 84.7393C44.0409 84.9346 44.5905 84.9346 45.0838 84.7393C45.3163 84.6436 45.5232 84.4952 45.6881 84.3059C45.8691 84.0937 46.0046 83.847 46.0862 83.5807C46.1881 83.2504 46.2368 82.9061 46.2303 82.5606ZM36.4948 81.9966C36.7371 82.0082 36.9795 81.9761 37.2103 81.902C37.3659 81.8456 37.4979 81.7389 37.5855 81.599C37.6618 81.4662 37.7009 81.3154 37.6986 81.1623C37.7015 81.0023 37.6564 80.8451 37.569 80.7108C37.4619 80.5639 37.3057 80.4599 37.1285 80.4176C37.0295 80.3896 36.9281 80.3711 36.8256 80.3622C36.7109 80.3508 36.5684 80.346 36.398 80.346H35.4351V81.9966H36.4948ZM35.4351 82.9761V84.775H36.2016C36.4062 84.775 36.5831 84.7702 36.7306 84.7588C36.858 84.7505 36.9845 84.732 37.1088 84.7034C37.2509 84.6765 37.3882 84.6293 37.5167 84.5633C37.6155 84.512 37.7047 84.4441 37.7804 84.3627C37.8452 84.291 37.8943 84.2067 37.9245 84.115C37.9538 84.0212 37.9682 83.9233 37.967 83.825C37.9702 83.6573 37.9185 83.4931 37.8196 83.3573C37.6997 83.2108 37.5363 83.1059 37.3529 83.0575C37.2468 83.0253 37.1375 83.0045 37.027 82.9955C36.8674 82.9811 36.7073 82.9746 36.5471 82.9761H35.4351ZM38.9087 81.0662C38.912 81.3317 38.8472 81.5936 38.7205 81.8272C38.5772 82.0768 38.3614 82.2773 38.1014 82.4023V82.422C38.2561 82.4736 38.404 82.5436 38.5419 82.6304C38.671 82.7114 38.7861 82.8127 38.8827 82.9304C38.9775 83.0487 39.0516 83.1821 39.102 83.3249C39.157 83.4831 39.1841 83.6496 39.1822 83.817C39.1797 83.9863 39.1544 84.1545 39.107 84.3172C39.0534 84.5045 38.9651 84.6803 38.8467 84.8354C38.7072 85.0158 38.5383 85.1717 38.3471 85.2965C38.1051 85.4511 37.8388 85.5641 37.5592 85.6307C37.4807 85.65 37.3922 85.6666 37.2989 85.6828C37.2039 85.699 37.0991 85.7121 36.9844 85.7236C36.8697 85.7348 36.7404 85.743 36.5995 85.748C36.4603 85.7529 36.3015 85.7545 36.1245 85.7545H34.2591V79.3665H36.4898C36.8787 79.3546 37.2671 79.403 37.641 79.5101C37.8427 79.5723 38.0338 79.6645 38.2077 79.7837C38.3585 79.8888 38.4922 80.0163 38.6042 80.1617C38.7043 80.2942 38.7818 80.4424 38.8335 80.6001C38.8825 80.7507 38.9079 80.9079 38.9087 81.0662ZM30.1838 85.7545H29.0094V80.346H26.936V79.3665H32.2522V80.346H30.1838V85.7545Z" fill="#4D4D4D"/>
<path d="M173.424 92.6147C173.734 93.063 173.951 93.3846 174.076 93.5797H174.1C174.273 93.3106 174.489 92.9907 174.749 92.6198L175.665 91.3014H177.017L174.782 94.4431L177.114 97.6892H175.779L174.777 96.2618C174.531 95.9113 174.304 95.5805 174.096 95.2693H174.076C173.86 95.5937 173.633 95.9245 173.395 96.2618L172.392 97.6892H171.059L173.39 94.4431L171.154 91.3014H172.507L173.424 92.6147ZM164.05 96.7099H164.65C164.866 96.7115 165.082 96.7023 165.297 96.6822C165.47 96.667 165.641 96.6315 165.806 96.5762C166.005 96.5151 166.185 96.4033 166.327 96.2519C166.455 96.092 166.524 95.8925 166.52 95.6879C166.516 95.4832 166.441 95.2862 166.307 95.1309C166.117 94.9539 165.877 94.8391 165.619 94.8018C165.486 94.7741 165.351 94.7561 165.215 94.748C165.069 94.7381 164.917 94.7348 164.759 94.7348C164.523 94.7331 164.286 94.7456 164.05 94.7724V96.7099ZM164.05 91.3014V93.7799C164.28 93.7572 164.525 93.7456 164.784 93.7456C165.007 93.7456 165.218 93.7538 165.415 93.7704C165.604 93.784 165.792 93.8095 165.978 93.8468C166.249 93.8972 166.512 93.9827 166.761 94.101C166.965 94.1998 167.15 94.3339 167.308 94.497C167.449 94.6478 167.559 94.8258 167.629 95.02C167.769 95.4225 167.771 95.8599 167.634 96.2635C167.566 96.4578 167.463 96.6382 167.331 96.7961C167.189 96.9664 167.019 97.1118 166.828 97.2264C166.608 97.3587 166.37 97.4596 166.122 97.5263C165.901 97.5855 165.676 97.6263 165.449 97.6484C165.151 97.6779 164.852 97.6915 164.553 97.6892H162.874V91.3014L164.05 91.3014ZM168.382 97.6892V91.3014H169.558V97.6892H168.382Z" fill="#4D4D4D"/>
</svg>
