<svg width="130" height="60" viewBox="0 0 130 60" fill="none" xmlns="http://www.w3.org/2000/svg">
<path fill-rule="evenodd" clip-rule="evenodd" d="M63.6891 0.10388C62.0842 0.39446 60.62 1.04468 59.5317 1.95002C59.3508 2.10056 58.301 3.11954 57.1989 4.21442C50.0001 11.3658 32.4212 28.722 32.3768 28.722C32.3473 28.722 28.3684 24.6247 23.5347 19.617C18.7012 14.6092 14.6145 10.4175 14.4532 10.302L14.16 10.092L28.4265 10.062L42.6931 10.032L43.2658 9.87314C45.8408 9.15884 47.7162 7.27292 48.3416 4.769C48.5204 4.05308 48.5807 3.24278 48.5831 1.52702L48.5851 0.0420197H27.5635C12.9294 0.0420197 6.40175 0.0615797 6.08065 0.10634C3.55814 0.4583 1.34907 2.2319 0.487694 4.59686C0.109586 5.63492 0.0624497 5.99774 0.0297294 8.12006L0 10.0481L12.5534 22.9878C19.4576 30.1047 25.1004 35.952 25.0926 35.9818C25.085 36.0117 25.2661 36.2044 25.4951 36.4101C27.504 38.2143 30.3704 39.1734 33.0144 38.9262C35.3485 38.7081 37.2489 37.8936 38.968 36.3747C39.1564 36.2082 39.3112 36.0393 39.312 35.9994C39.3128 35.9594 45.2785 30.0223 52.5692 22.8058L65.8251 9.6848L70.8286 14.6887C93.2489 37.1107 92.9234 36.7878 93.5082 37.1991C95.4837 38.5887 97.957 39.2355 100.315 38.9788C102.426 38.749 104.553 37.8033 105.929 36.4824L106.357 36.072L89.7188 19.4157C76.3072 5.98952 72.9631 2.67212 72.475 2.3096C71.0693 1.26536 69.5004 0.56456 67.7268 0.18836C67.0797 0.0511397 66.8019 0.0267797 65.6631 0.00727972C64.5434 -0.0119203 64.2489 0.00247971 63.6891 0.10388ZM87.8854 0.0213197C86.8324 0.16004 85.6269 0.53654 84.6851 1.02086C84.0991 1.32224 83.1092 2.02202 82.7889 2.36126L82.6274 2.53232L82.9466 2.9522C83.4042 3.55406 116.203 36.4015 116.837 36.8926C119.909 39.2733 123.953 39.7048 127.396 38.0197C128.04 37.7046 128.913 37.1493 129.324 36.7929L129.578 36.5727V36.0817V35.5909L113.233 19.2064C104.243 10.1949 96.713 2.68586 96.4991 2.5196C95.2946 1.58318 93.762 0.80174 92.3513 0.40472C91.264 0.0986597 90.7817 0.0345197 89.4107 0.0137597C88.6869 0.00277972 88.0005 0.00619972 87.8854 0.0213197ZM27.0899 47.7739C24.2023 48.3214 22.2351 50.5599 22.1038 53.4478C22.0165 55.3666 22.6134 56.9248 23.9188 58.1861C24.4823 58.7305 24.7949 58.9502 25.4501 59.2625C26.4993 59.7625 27.7026 59.9755 28.829 59.8606C31.434 59.5948 33.4671 57.8958 34.1404 55.422C34.333 54.7144 34.3983 53.6336 34.2929 52.8967C34.2022 52.2622 33.8766 51.2708 33.5905 50.7577C32.799 49.3379 31.4469 48.3082 29.8147 47.8822C29.0726 47.6885 27.8057 47.6382 27.0899 47.7739ZM96.3935 47.7677C94.9748 48.0392 93.8625 48.6294 92.9613 49.5886C92.2946 50.2981 91.8601 51.0736 91.5586 52.092C91.3324 52.8562 91.2882 54.2226 91.4625 55.0692C91.8076 56.7457 92.7813 58.1327 94.2264 59.0066C96.2376 60.2227 98.9357 60.1752 100.913 58.8888C101.525 58.4909 102.375 57.6124 102.736 57.0048C103.341 55.9881 103.663 54.6695 103.598 53.4754C103.451 50.7633 101.68 48.5632 99.1012 47.8892C98.355 47.6942 97.0771 47.6368 96.3935 47.7677ZM2.10672 53.802V59.682H3.51244H4.91815V55.152V50.622H7.31086H9.70357V49.272V47.922H5.90515H2.10672V53.802ZM12.3702 48.087C12.3511 48.1778 12.0543 50.034 11.7107 52.212C11.367 54.39 11.0446 56.2885 10.9942 56.431C10.7648 57.0785 10.4742 57.252 9.69322 57.2073L9.16521 57.1771V58.4555C9.16521 59.6215 9.17443 59.7366 9.26989 59.7643C9.3275 59.781 9.58992 59.8264 9.85312 59.865C11.9108 60.1673 13.3309 59.0167 13.8558 56.622C13.9101 56.3745 14.1501 54.93 14.3893 53.412L14.8241 50.652L16.0922 50.6358L17.3602 50.6196V55.1508V59.682H18.7959H20.2315V53.802V47.922H16.3182H12.4049L12.3702 48.087ZM36.2028 53.8055V59.689L39.2685 59.6662C42.6969 59.6408 42.6898 59.6416 43.5949 59.2029C43.9701 59.021 44.1655 58.8757 44.4696 58.5523C45.151 57.8278 45.3829 57.1548 45.3829 55.902C45.3829 54.6261 45.1449 53.9428 44.462 53.2575C44.0257 52.8196 43.6385 52.6075 42.9142 52.4097C42.5124 52.3 42.2387 52.2805 40.7639 52.2569L39.0741 52.2297V51.4259V50.622H41.7958H44.5175V49.272V47.922H40.3602H36.2028V53.8055ZM50.2537 48.0861C50.1067 48.4678 46.0728 59.63 46.0728 59.6548C46.0728 59.6698 46.7524 59.6818 47.5832 59.6815L49.0936 59.6809L49.4443 58.6465C49.6372 58.0776 49.8311 57.5239 49.8752 57.4162L49.9554 57.2205L52.1266 57.2362L54.2977 57.252L54.7164 58.4663L55.1351 59.6806L56.6455 59.6813C57.4763 59.6817 58.1546 59.6618 58.1529 59.637C58.1513 59.6122 57.2006 56.973 56.0403 53.772L53.9307 47.952L52.1241 47.9361L50.3175 47.9203L50.2537 48.0861ZM62.5226 47.97C62.5226 48.1533 61.2452 56.0548 61.1766 56.2958C61.0622 56.6978 60.8624 56.9874 60.6073 57.121C60.4369 57.2103 60.2988 57.2254 59.8458 57.2044L59.2925 57.1787V58.4554V59.732L59.6065 59.8003C61.3839 60.1867 62.7621 59.5714 63.5001 58.062C63.894 57.2562 64.0187 56.7037 64.4955 53.652C64.7275 52.167 64.9324 50.8778 64.9509 50.787L64.9847 50.622H66.266H67.5473V55.152V59.682H68.983H70.4186V53.802V47.922H66.4706C64.2992 47.922 62.5226 47.9436 62.5226 47.97ZM77.6565 53.802V59.682H79.0917H80.5269L80.5423 55.8432L80.5577 52.0044L81.9888 54.1931C83.2798 56.1679 83.4355 56.382 83.5797 56.382C83.7241 56.382 83.8794 56.1682 85.1695 54.1937L86.5993 52.0054L86.6146 55.8437L86.6301 59.682H88.0652H89.5004V53.802V47.922H87.8648H86.2291L84.9188 49.9005C84.1981 50.9886 83.5949 51.8789 83.5785 51.8789C83.562 51.8789 82.9589 50.9886 82.2382 49.9005L80.9278 47.922H79.2922H77.6565V53.802ZM107.538 48.057C107.522 48.1312 107.237 49.92 106.906 52.032C106.575 54.144 106.264 56.0318 106.216 56.2271C106.097 56.7041 105.928 56.9605 105.633 57.1115C105.421 57.2199 105.314 57.2331 104.861 57.2071L104.335 57.1771V58.4555C104.335 59.6213 104.344 59.7367 104.44 59.7648C104.756 59.8581 105.594 59.9324 105.941 59.898C107.425 59.7509 108.417 58.8074 108.909 57.072C108.994 56.775 109.271 55.209 109.526 53.592L109.99 50.652L111.26 50.6358L112.53 50.6196V55.1508V59.682H113.966H115.402V53.802V47.922H111.485H107.568L107.538 48.057ZM120.187 47.9727C120.187 48.1699 118.909 56.061 118.835 56.322C118.63 57.0396 118.303 57.2536 117.48 57.2068L116.957 57.1771V58.4546V59.732L117.271 59.8003C118.169 59.9955 119.039 59.9202 119.748 59.5859C120.625 59.1722 121.374 58.0178 121.681 56.6059C121.715 56.4486 121.931 55.1255 122.16 53.6659C122.389 52.2062 122.592 50.9243 122.611 50.817L122.645 50.622H123.928H125.212V55.152V59.682H126.647H128.083V53.802V47.922H124.135C121.964 47.922 120.187 47.9448 120.187 47.9727ZM29.0767 50.5292C30.1722 50.8216 31.0364 51.6999 31.326 52.8151C31.4431 53.2662 31.4449 54.3233 31.3292 54.7593C30.9227 56.2913 29.5637 57.2548 27.9737 57.1383C26.5583 57.0346 25.4631 56.1278 25.1039 54.762C24.9654 54.2353 24.9648 53.2876 25.1027 52.812C25.4286 51.6882 26.2723 50.8132 27.2963 50.537C27.7151 50.424 28.6671 50.4198 29.0767 50.5292ZM98.3456 50.5292C99.4481 50.8235 100.3 51.7099 100.595 52.8696C100.711 53.3224 100.711 54.1997 100.596 54.6881C100.273 56.0643 99.1588 57.0201 97.7382 57.1405C96.1656 57.2738 94.8367 56.3465 94.3682 54.7889C94.2206 54.2984 94.2208 53.2462 94.3684 52.752C94.6964 51.6537 95.5262 50.8173 96.5656 50.5369C96.984 50.424 97.9362 50.4199 98.3456 50.5292ZM52.7296 52.677C53.0501 53.6093 53.3119 54.4058 53.3115 54.447C53.3109 54.5045 53.0311 54.522 52.1143 54.522C51.1974 54.522 50.9179 54.5045 50.9175 54.447C50.9167 54.3344 52.0731 50.982 52.1127 50.982C52.1316 50.982 52.4092 51.7447 52.7296 52.677ZM42.1088 55.019C42.3819 55.1674 42.4838 55.4023 42.4835 55.884C42.4832 56.3915 42.3496 56.6399 41.9889 56.8042C41.7641 56.9066 41.588 56.9196 40.405 56.9207L39.0741 56.922V55.8965V54.871L40.4948 54.8925C41.7073 54.9108 41.9438 54.9294 42.1088 55.019Z" fill="white"/>
</svg>
